<svg width="914" height="400" fill="none" xmlns="http://www.w3.org/2000/svg">
  <path fill="#fff" d="M0 0h914v400H0z"/>
  <path d="M409.959 209h-12.564v-1.791l7.027-9.023h-6.33V195h11.813v2.133l-6.658 8.681h6.712V209zm13.427 0h-4.088v-2.01h-.055c-.939 1.568-2.329 2.352-4.17 2.352-1.358 0-2.429-.383-3.213-1.149-.774-.774-1.162-1.804-1.162-3.089 0-2.717 1.609-4.284 4.826-4.704l3.801-.505c0-1.532-.829-2.297-2.488-2.297-1.668 0-3.254.496-4.758 1.49v-3.254c.602-.31 1.422-.583 2.461-.82 1.048-.237 2.001-.356 2.857-.356 3.993 0 5.989 1.992 5.989 5.975V209zm-4.061-5.688v-.943l-2.543.328c-1.403.183-2.105.816-2.105 1.901 0 .492.168.897.506 1.216.346.31.811.465 1.394.465.811 0 1.472-.278 1.983-.834.51-.565.765-1.276.765-2.133zm11.294 4.061h-.055V209h-4.32v-20.727h4.32v8.832h.055c1.066-1.631 2.584-2.447 4.552-2.447 1.805 0 3.195.62 4.17 1.86.976 1.239 1.463 2.934 1.463 5.086 0 2.333-.569 4.206-1.709 5.619-1.139 1.412-2.661 2.119-4.566 2.119-1.723 0-3.026-.656-3.91-1.969zm-.123-5.906v1.435c0 .903.259 1.65.779 2.243.52.592 1.185.888 1.996.888.984 0 1.746-.378 2.283-1.135.547-.765.821-1.845.821-3.24 0-1.157-.251-2.06-.752-2.707-.493-.656-1.199-.984-2.119-.984-.866 0-1.586.323-2.161.971-.565.647-.847 1.49-.847 2.529zm16.926 5.906h-.055V209h-4.32v-20.727h4.32v8.832h.055c1.066-1.631 2.584-2.447 4.553-2.447 1.804 0 3.194.62 4.17 1.86.975 1.239 1.463 2.934 1.463 5.086 0 2.333-.57 4.206-1.709 5.619-1.14 1.412-2.662 2.119-4.567 2.119-1.722 0-3.026-.656-3.91-1.969zm-.123-5.906v1.435c0 .903.26 1.65.779 2.243.52.592 1.185.888 1.996.888.985 0 1.746-.378 2.284-1.135.546-.765.82-1.845.82-3.24 0-1.157-.251-2.06-.752-2.707-.492-.656-1.199-.984-2.119-.984-.866 0-1.586.323-2.16.971-.565.647-.848 1.49-.848 2.529zm14.739-8.682c-.729 0-1.326-.214-1.791-.642a2.114 2.114 0 01-.697-1.6c0-.647.232-1.176.697-1.586.465-.41 1.062-.615 1.791-.615.738 0 1.335.205 1.791.615.465.41.697.939.697 1.586 0 .656-.232 1.194-.697 1.613-.456.42-1.053.629-1.791.629zM464.171 209h-4.321v-14h4.321v14zm16.598-14l-4.621 6.781 4.593 7.219h-4.976l-2.024-3.773c-.164-.301-.36-.725-.587-1.272h-.055a8.936 8.936 0 01-.561 1.231L470.501 209h-4.963l4.731-6.973-4.444-7.027h5.004l1.996 3.924c.265.519.452.957.561 1.312h.055c.146-.428.341-.875.588-1.34l2.037-3.896h4.703z" fill="#333"/>
  <path d="M483.408 209.273c-.365 0-.674-.127-.93-.382a1.267 1.267 0 01-.382-.93c0-.374.123-.688.369-.943.255-.256.569-.383.943-.383.182 0 .351.036.506.109.164.064.305.155.424.274a1.297 1.297 0 01.396.943c0 .182-.036.355-.109.519a1.467 1.467 0 01-.287.411c-.119.118-.26.209-.424.273a1.173 1.173 0 01-.506.109zm16.352-1.353c0 2.598-.592 4.521-1.777 5.769-1.176 1.258-2.994 1.887-5.455 1.887a9.599 9.599 0 01-4.348-1.025v-1.778c1.522.848 2.971 1.272 4.348 1.272 3.655 0 5.482-1.932 5.482-5.797v-1.682h-.055c-1.075 1.842-2.716 2.762-4.921 2.762-.866 0-1.659-.159-2.379-.478a5.133 5.133 0 01-1.832-1.381c-.511-.602-.907-1.331-1.19-2.188-.282-.866-.424-1.841-.424-2.926 0-1.148.151-2.192.452-3.13.3-.948.729-1.76 1.285-2.434a5.696 5.696 0 012.009-1.559c.793-.373 1.682-.56 2.666-.56 1.978 0 3.423.802 4.334 2.406h.055V195h1.75v12.92zm-1.75-7.424c0-.583-.105-1.135-.314-1.654a4.295 4.295 0 00-.875-1.367 4.12 4.12 0 00-1.34-.93 3.98 3.98 0 00-1.695-.356c-.73 0-1.39.142-1.983.424a4.366 4.366 0 00-1.504 1.203c-.41.52-.729 1.153-.957 1.901-.219.738-.328 1.572-.328 2.502 0 .857.105 1.631.314 2.324.21.693.506 1.281.889 1.764a4 4 0 001.381 1.121 4.128 4.128 0 001.818.396c.693 0 1.322-.123 1.887-.369a4.383 4.383 0 001.449-1.039c.401-.447.711-.966.93-1.559a5.626 5.626 0 00.328-1.941v-2.42zm11.43 8.832c-1.039 0-1.973-.173-2.802-.519a6.034 6.034 0 01-2.106-1.463 6.55 6.55 0 01-1.34-2.284c-.31-.884-.465-1.863-.465-2.939 0-1.167.165-2.21.493-3.131.328-.92.793-1.7 1.394-2.338a6.016 6.016 0 012.201-1.476c.857-.338 1.814-.506 2.871-.506 1.012 0 1.924.168 2.735.506a5.507 5.507 0 012.064 1.435c.565.629.998 1.395 1.299 2.297.301.902.451 1.928.451 3.076 0 1.094-.159 2.092-.478 2.994a6.671 6.671 0 01-1.34 2.311 5.964 5.964 0 01-2.133 1.504c-.838.355-1.786.533-2.844.533zm.137-13.139c-.766 0-1.458.133-2.078.397a4.39 4.39 0 00-1.6 1.162c-.437.501-.774 1.121-1.011 1.859-.237.73-.356 1.559-.356 2.489 0 .875.119 1.663.356 2.365a5.4 5.4 0 00.998 1.805c.437.501.966.888 1.586 1.162.619.264 1.312.396 2.078.396.784 0 1.476-.127 2.078-.383a4.205 4.205 0 001.531-1.134c.419-.502.734-1.112.943-1.832.219-.72.329-1.541.329-2.461 0-1.887-.42-3.327-1.258-4.321-.839-1.002-2.037-1.504-3.596-1.504z" fill="#555"/>
</svg>
